<?xml version="1.0" standalone="no"?>
<!DOCTYPE svg PUBLIC "-//W3C//DTD SVG 20010904//EN"
 "http://www.w3.org/TR/2001/REC-SVG-20010904/DTD/svg10.dtd">
<svg version="1.0" xmlns="http://www.w3.org/2000/svg"
 width="474.000000pt" height="474.000000pt" viewBox="0 0 474.000000 474.000000"
 preserveAspectRatio="xMidYMid meet">
<metadata>
Created by potrace 1.16, written by Peter Selinger 2001-2019
</metadata>
<g transform="translate(0.000000,474.000000) scale(0.100000,-0.100000)"
fill="#000000" stroke="none">
<path d="M2175 3680 c-215 -33 -428 -147 -573 -305 -108 -118 -175 -254 -235
-474 -30 -112 -31 -123 -31 -331 -1 -243 9 -303 86 -514 51 -139 105 -229 188
-312 112 -114 238 -187 415 -241 82 -24 104 -27 260 -27 147 -1 182 2 260 22
161 42 324 132 443 245 l42 41 0 -54 c0 -70 -17 -273 -31 -370 -48 -337 -269
-532 -619 -547 -148 -6 -233 11 -360 74 -76 38 -111 63 -176 128 -48 48 -98
109 -123 152 l-42 73 -134 0 c-121 0 -133 -2 -130 -17 2 -10 9 -47 15 -83 61
-341 457 -576 940 -557 340 14 558 98 716 279 96 108 155 250 196 463 20 106
21 147 25 1135 3 564 2 1053 -2 1088 l-7 62 -134 0 -134 0 0 -140 c0 -77 -3
-140 -7 -140 -5 1 -24 21 -43 46 -101 131 -279 242 -455 285 -95 22 -266 32
-350 19z m330 -245 c251 -64 432 -262 512 -560 25 -93 27 -114 27 -305 0 -192
-2 -211 -27 -304 -80 -297 -248 -474 -512 -541 -93 -24 -257 -24 -345 -1 -317
84 -498 331 -541 737 -8 79 -8 134 0 215 33 313 134 520 317 650 75 53 158 92
239 109 84 19 257 18 330 0z"/>
</g>
</svg>
